<svg width="167" height="43" viewBox="0 0 167 43" fill="none" xmlns="http://www.w3.org/2000/svg">
<path d="M68.6348 34.9164L61.4794 25.5174V34.9164H56.2948V13.6323H61.4794V22.9706L68.5741 13.6323H74.6683L66.4215 24.0621L74.9715 34.9164H68.6348ZM91.5642 26.1844C91.5642 26.6695 91.5338 27.1749 91.4732 27.7004H79.7397C79.8205 28.7515 80.154 29.56 80.7402 30.1259C81.3466 30.6717 82.0843 30.9446 82.9535 30.9446C84.2471 30.9446 85.1466 30.3988 85.6519 29.3073H91.17C90.887 30.419 90.3716 31.4196 89.6237 32.3089C88.8961 33.1983 87.9764 33.8956 86.8647 34.401C85.753 34.9063 84.5099 35.1589 83.1354 35.1589C81.478 35.1589 80.0024 34.8052 78.7088 34.0978C77.4152 33.3903 76.4045 32.3797 75.6769 31.0658C74.9492 29.752 74.5854 28.2158 74.5854 26.4573C74.5854 24.6988 74.9391 23.1626 75.6466 21.8488C76.3742 20.535 77.3849 19.5243 78.6785 18.8169C79.9721 18.1094 81.4577 17.7557 83.1354 17.7557C84.7726 17.7557 86.228 18.0993 87.5014 18.7865C88.7748 19.4738 89.7652 20.4541 90.4727 21.7275C91.2003 23.0009 91.5642 24.4866 91.5642 26.1844ZM86.2583 24.8201C86.2583 23.9307 85.9551 23.2233 85.3487 22.6977C84.7423 22.1722 83.9843 21.9094 83.0748 21.9094C82.2056 21.9094 81.4679 22.1621 80.8615 22.6674C80.2753 23.1727 79.9115 23.8903 79.77 24.8201H86.2583ZM109.762 17.9982L99.1504 42.951H93.5716L97.4525 34.3403L90.57 17.9982H96.361L100.272 28.5797L104.153 17.9982H109.762ZM121.74 20.8179C122.346 19.8881 123.104 19.1605 124.014 18.635C124.924 18.0892 125.934 17.8163 127.046 17.8163V23.3041H125.621C124.327 23.3041 123.357 23.5871 122.71 24.1531C122.063 24.6988 121.74 25.669 121.74 27.0637V34.9164H116.555V17.9982H121.74V20.8179Z" fill="#0D114F"/>
<path d="M112.243 35.1589C111.334 35.1589 110.586 34.8962 110 34.3706C109.434 33.8249 109.151 33.1579 109.151 32.3696C109.151 31.5611 109.434 30.8839 110 30.3382C110.586 29.7924 111.334 29.5196 112.243 29.5196C113.133 29.5196 113.86 29.7924 114.426 30.3382C115.012 30.8839 115.306 31.5611 115.306 32.3696C115.306 33.1579 115.012 33.8249 114.426 34.3706C113.86 34.8962 113.133 35.1589 112.243 35.1589Z" fill="#D634FF"/>
<rect width="46.6489" height="42.2714" rx="7.57981" fill="#D634FF"/>
<path d="M18.2197 33L11.0644 23.601V33H5.87979V11.7159H11.0644V21.0542L18.1591 11.7159H24.2533L16.0064 22.1457L24.5564 33H18.2197ZM34.9917 18.9016C35.5981 17.9718 36.3561 17.2441 37.2657 16.7186C38.1752 16.1728 39.1859 15.9 40.2976 15.9V21.3877H38.8726C37.579 21.3877 36.6087 21.6707 35.9619 22.2367C35.3151 22.7824 34.9917 23.7526 34.9917 25.1473V33H29.8071V16.0819H34.9917V18.9016Z" fill="#0D114F"/>
<circle cx="27" cy="32.5" r="2" fill="#D634FF" stroke="#0D114F"/>
</svg>
