<svg width="20" height="20" viewBox="0 0 20 20" fill="none" xmlns="http://www.w3.org/2000/svg">
<path d="M1 11C1 9.11438 1 8.17157 1.58579 7.58579C2.17157 7 3.11438 7 5 7H15C16.8856 7 17.8284 7 18.4142 7.58579C19 8.17157 19 9.11438 19 11V13C19 15.8284 19 17.2426 18.1213 18.1213C17.2426 19 15.8284 19 13 19H7C4.17157 19 2.75736 19 1.87868 18.1213C1 17.2426 1 15.8284 1 13V11Z" stroke="#4D5E77" stroke-width="2"/>
<path d="M14.5 6V5.5C14.5 3.01472 12.4853 1 10 1V1C7.51472 1 5.5 3.01472 5.5 5.5V6" stroke="#4D5E77" stroke-width="2" stroke-linecap="round"/>
<ellipse cx="10" cy="13" rx="2.25" ry="2" fill="#4D5E77"/>
</svg>
